<svg width="8" height="8" viewBox="0 0 8 8" fill="none" xmlns="http://www.w3.org/2000/svg">
<g opacity="0.8">
<path d="M4.00016 3C3.73495 3 3.48059 3.10536 3.29306 3.29289C3.10552 3.48043 3.00016 3.73478 3.00016 4C3.00016 4.26522 3.10552 4.51957 3.29306 4.70711C3.48059 4.89464 3.73495 5 4.00016 5C4.26538 5 4.51973 4.89464 4.70727 4.70711C4.89481 4.51957 5.00016 4.26522 5.00016 4C5.00016 3.73478 4.89481 3.48043 4.70727 3.29289C4.51973 3.10536 4.26538 3 4.00016 3ZM4.00016 5.66667C3.55813 5.66667 3.13421 5.49107 2.82165 5.17851C2.50909 4.86595 2.3335 4.44203 2.3335 4C2.3335 3.55797 2.50909 3.13405 2.82165 2.82149C3.13421 2.50893 3.55813 2.33333 4.00016 2.33333C4.44219 2.33333 4.86611 2.50893 5.17867 2.82149C5.49123 3.13405 5.66683 3.55797 5.66683 4C5.66683 4.44203 5.49123 4.86595 5.17867 5.17851C4.86611 5.49107 4.44219 5.66667 4.00016 5.66667ZM4.00016 1.5C2.3335 1.5 0.910163 2.53667 0.333496 4C0.910163 5.46333 2.3335 6.5 4.00016 6.5C5.66683 6.5 7.09016 5.46333 7.66683 4C7.09016 2.53667 5.66683 1.5 4.00016 1.5Z" fill="#838383"/>
</g>
</svg>
