<svg width="1921" height="487" viewBox="0 0 1921 487" fill="none" xmlns="http://www.w3.org/2000/svg">
<g clip-path="url(#clip0_368_2606)">
<path d="M0 412.046L61.3266 400.397C122.423 388.649 245.077 365.35 367.5 360.414C489.923 355.478 612.577 368.904 735 366.436C857.423 363.968 980.077 345.605 1102.5 349.554C1224.92 353.503 1347.58 379.764 1470 385.885C1592.42 392.005 1715.08 377.789 1837.5 370.582C1959.92 363.376 2082.58 362.981 2143.67 362.882L2205 362.685V493H2143.67C2082.58 493 1959.92 493 1837.5 493C1715.08 493 1592.42 493 1470 493C1347.58 493 1224.92 493 1102.5 493C980.077 493 857.423 493 735 493C612.577 493 489.923 493 367.5 493C245.077 493 122.423 493 61.3266 493H0V412.046Z" fill="#EA4335"/>
<path opacity="0.991" fill-rule="evenodd" clip-rule="evenodd" d="M2077.27 304.484C2003.48 337.767 1924.83 361.417 1841.34 375.432C1831.66 376.695 1822.54 378.513 1813.98 380.889C1739.76 381.839 1665.67 380.019 1591.72 375.432C1564.34 369.063 1536.98 362.697 1509.66 356.331C1578.87 328.713 1648.4 300.972 1718.24 273.104C1819.36 237.715 1919.66 239.535 2019.14 278.561C2039.84 285.893 2059.22 294.535 2077.27 304.484Z" fill="#FABB06"/>
<path opacity="0.99" fill-rule="evenodd" clip-rule="evenodd" d="M907.846 348.144C874.096 357.424 839.903 365.61 805.264 372.702C698.248 378.94 591.105 383.489 483.843 386.346C348.616 370.039 215.26 348.209 83.7751 320.856C150.535 288.995 222.342 267.621 299.196 256.73C359.199 252.853 418.471 256.49 477.004 267.645C619.182 299.523 762.796 326.357 907.846 348.144Z" fill="#FABB08"/>
<path opacity="0.995" fill-rule="evenodd" clip-rule="evenodd" d="M2134.4 282.66C2134.4 305.399 2134.4 328.14 2134.4 350.879C2042.71 364.061 1950.39 373.156 1857.43 378.166C1850.88 378.941 1845.19 378.033 1840.34 375.438C1923.83 361.423 2002.48 337.773 2076.27 304.49C2096.06 297.958 2115.44 290.683 2134.4 282.66Z" fill="#4C84EE"/>
<path opacity="0.98" fill-rule="evenodd" clip-rule="evenodd" d="M1509.66 356.337C1536.98 362.703 1564.34 369.069 1591.72 375.438C1494.82 368.979 1397.93 362.157 1301.07 354.973C1230.41 353.153 1159.74 353.153 1089.07 354.973C994.465 361.036 899.864 366.949 805.264 372.709C839.902 365.617 874.096 357.431 907.845 348.151C983.167 329.257 1059.53 313.34 1136.94 300.398C1193.21 293.955 1249.06 295.775 1304.49 305.855C1373.72 320.784 1442.11 337.612 1509.66 356.337Z" fill="#4C83EE"/>
<path opacity="0.997" fill-rule="evenodd" clip-rule="evenodd" d="M-1.70996 307.21C26.8778 311.41 55.3725 315.956 83.7745 320.854C215.259 348.207 348.616 370.037 483.842 386.344C476.555 388.565 468.578 389.929 459.906 390.437C305.387 394.26 151.515 388.347 -1.70996 372.7C-1.70996 350.87 -1.70996 329.04 -1.70996 307.21Z" fill="#4B83EF"/>
<path fill-rule="evenodd" clip-rule="evenodd" d="M2135.4 350.87C2135.4 371.791 2135.4 392.71 2135.4 413.631C1423.03 413.631 710.66 413.631 -1.70996 413.631C-1.70996 399.988 -1.70996 386.344 -1.70996 372.7C151.515 388.347 305.387 394.26 459.906 390.437C468.578 389.929 476.555 388.565 483.842 386.344C591.105 383.487 698.247 378.938 805.264 372.7C899.864 366.94 994.465 361.027 1089.07 354.963C1159.74 353.143 1230.41 353.143 1301.07 354.963C1397.93 362.148 1494.82 368.97 1591.72 375.429C1665.67 380.016 1739.76 381.836 1813.98 380.886C1829.48 381.754 1844.3 380.845 1858.43 378.158C1951.39 373.148 2043.71 364.053 2135.4 350.87Z" fill="#E94335"/>
<path fill-rule="evenodd" clip-rule="evenodd" d="M1841.34 375.43C1846.19 378.025 1851.88 378.934 1858.43 378.159C1844.3 380.847 1829.48 381.755 1813.98 380.888C1822.54 378.511 1831.66 376.694 1841.34 375.43Z" fill="#9C748F"/>
</g>
<defs>
<clipPath id="clip0_368_2606">
<rect width="1921" height="487" fill="white"/>
</clipPath>
</defs>
</svg>
