<?xml version="1.0" encoding="UTF-8"?>
<!DOCTYPE svg PUBLIC "-//W3C//DTD SVG 1.1//EN" "http://www.w3.org/Graphics/SVG/1.1/DTD/svg11.dtd">
<svg xmlns="http://www.w3.org/2000/svg" version="1.1" width="625px" height="292px" style="shape-rendering:geometricPrecision; text-rendering:geometricPrecision; image-rendering:optimizeQuality; fill-rule:evenodd; clip-rule:evenodd" xmlns:xlink="http://www.w3.org/1999/xlink">
<g><path style="opacity:0.991" fill="#fabb06" d="M 607.5,251.5 C 585.918,263.697 562.918,272.364 538.5,277.5C 535.67,277.963 533.003,278.629 530.5,279.5C 508.794,279.848 487.127,279.181 465.5,277.5C 457.492,275.166 449.492,272.833 441.5,270.5C 461.741,260.379 482.075,250.213 502.5,240C 532.073,227.031 561.406,227.698 590.5,242C 596.552,244.687 602.219,247.854 607.5,251.5 Z"/></g>
<g><path style="opacity:0.99" fill="#fabb08" d="M 265.5,267.5 C 255.63,270.901 245.63,273.901 235.5,276.5C 204.203,278.786 172.869,280.453 141.5,281.5C 101.953,275.524 62.9527,267.524 24.5,257.5C 44.024,245.824 65.024,237.991 87.5,234C 105.048,232.579 122.382,233.912 139.5,238C 181.08,249.682 223.08,259.516 265.5,267.5 Z"/></g>
<g><path style="opacity:0.995" fill="#4c84ee" d="M 624.5,243.5 C 624.5,251.833 624.5,260.167 624.5,268.5C 597.685,273.331 570.685,276.664 543.5,278.5C 541.585,278.784 539.919,278.451 538.5,277.5C 562.918,272.364 585.918,263.697 607.5,251.5C 613.287,249.106 618.954,246.44 624.5,243.5 Z"/></g>
<g><path style="opacity:0.98" fill="#4c83ee" d="M 441.5,270.5 C 449.492,272.833 457.492,275.166 465.5,277.5C 437.161,275.133 408.827,272.633 380.5,270C 359.833,269.333 339.167,269.333 318.5,270C 290.832,272.222 263.166,274.389 235.5,276.5C 245.63,273.901 255.63,270.901 265.5,267.5C 287.528,260.576 309.861,254.743 332.5,250C 348.956,247.639 365.289,248.306 381.5,252C 401.745,257.471 421.745,263.638 441.5,270.5 Z"/></g>
<g><path style="opacity:0.997" fill="#4b83ef" d="M -0.5,252.5 C 7.8605,254.039 16.1938,255.705 24.5,257.5C 62.9527,267.524 101.953,275.524 141.5,281.5C 139.369,282.314 137.036,282.814 134.5,283C 89.3107,284.401 44.3107,282.234 -0.5,276.5C -0.5,268.5 -0.5,260.5 -0.5,252.5 Z"/></g>
<g><path style="opacity:1" fill="#e94335" d="M 624.5,268.5 C 624.5,276.167 624.5,283.833 624.5,291.5C 416.167,291.5 207.833,291.5 -0.5,291.5C -0.5,286.5 -0.5,281.5 -0.5,276.5C 44.3107,282.234 89.3107,284.401 134.5,283C 137.036,282.814 139.369,282.314 141.5,281.5C 172.869,280.453 204.203,278.786 235.5,276.5C 263.166,274.389 290.832,272.222 318.5,270C 339.167,269.333 359.833,269.333 380.5,270C 408.827,272.633 437.161,275.133 465.5,277.5C 487.127,279.181 508.794,279.848 530.5,279.5C 535.032,279.818 539.366,279.485 543.5,278.5C 570.685,276.664 597.685,273.331 624.5,268.5 Z"/></g>
<g><path style="opacity:1" fill="#9c748f" d="M 538.5,277.5 C 539.919,278.451 541.585,278.784 543.5,278.5C 539.366,279.485 535.032,279.818 530.5,279.5C 533.003,278.629 535.67,277.963 538.5,277.5 Z"/></g>
</svg>
